<?xml version="1.0" encoding="utf-8"?>
<!-- Generator: Adobe Illustrator 16.0.0, SVG Export Plug-In . SVG Version: 6.00 Build 0)  -->
<!DOCTYPE svg PUBLIC "-//W3C//DTD SVG 1.1//EN" "http://www.w3.org/Graphics/SVG/1.1/DTD/svg11.dtd">
<svg version="1.1" id="Layer_1" xmlns="http://www.w3.org/2000/svg" xmlns:xlink="http://www.w3.org/1999/xlink" x="0px" y="0px"
	 width="59.505px" height="11.731px" viewBox="0 0 59.505 11.731" enable-background="new 0 0 59.505 11.731" xml:space="preserve">
<g>
	<path fill="#FFFFFF" d="M0.01,9.619V1.732h2.18v4.729l1.852-2.578H6.32l-1.91,2.59l1.992,3.146H4.029l-1.84-3.07v3.07H0.01z"/>
	<path fill="#FFFFFF" d="M7.117,11.717V9.965h0.568c0.281,0,0.503-0.022,0.665-0.067s0.255-0.11,0.278-0.196l0.029-0.082
		L6.402,3.883h2.256L9.76,7.615l0.914-3.732h2.203l-1.951,5.736l-0.205,0.574c-0.121,0.34-0.276,0.622-0.466,0.847
		s-0.463,0.394-0.82,0.507s-0.853,0.17-1.485,0.17H7.117z"/>
	<path fill="#FFFFFF" d="M16.182,9.736c-0.605,0-1.146-0.112-1.62-0.337S13.715,8.842,13.445,8.4s-0.404-0.982-0.404-1.623
		c0-0.652,0.135-1.202,0.404-1.649s0.642-0.786,1.116-1.017s1.015-0.346,1.62-0.346c0.598,0,1.132,0.115,1.603,0.346
		s0.842,0.569,1.113,1.017s0.407,0.997,0.407,1.649c0,0.641-0.136,1.182-0.407,1.623s-0.643,0.774-1.113,0.999
		S16.779,9.736,16.182,9.736z M14.465,3.01V1.926h3.41V3.01H14.465z M16.182,8.096c0.25,0,0.442-0.063,0.577-0.19
		s0.229-0.291,0.281-0.492S17.119,7,17.119,6.777c0-0.23-0.026-0.45-0.079-0.659s-0.146-0.38-0.281-0.513s-0.327-0.199-0.577-0.199
		c-0.254,0-0.452,0.066-0.595,0.199s-0.241,0.304-0.296,0.513s-0.082,0.429-0.082,0.659c0,0.223,0.027,0.435,0.082,0.636
		s0.153,0.365,0.296,0.492S15.928,8.096,16.182,8.096z"/>
	<path fill="#FFFFFF" d="M22.41,9.713c-0.48,0-0.894-0.106-1.239-0.319s-0.611-0.538-0.797-0.976s-0.278-0.992-0.278-1.664
		c0-0.664,0.101-1.216,0.302-1.655s0.484-0.768,0.85-0.984s0.792-0.325,1.28-0.325c0.41,0,0.743,0.078,0.999,0.234
		s0.456,0.346,0.601,0.568V1.732h2.18v7.887h-2.109l-0.082-0.791c-0.203,0.281-0.437,0.499-0.7,0.653S22.816,9.713,22.41,9.713z
		 M23.143,8.119c0.266,0,0.482-0.083,0.65-0.249s0.279-0.327,0.334-0.483V6.08c-0.074-0.156-0.196-0.31-0.366-0.46
		s-0.376-0.226-0.618-0.226c-0.25,0-0.457,0.115-0.621,0.346s-0.246,0.58-0.246,1.049c0,0.48,0.08,0.822,0.24,1.025
		S22.885,8.119,23.143,8.119z"/>
	<path fill="#FFFFFF" d="M30.496,9.736c-0.605,0-1.146-0.112-1.62-0.337S28.029,8.842,27.76,8.4s-0.404-0.982-0.404-1.623
		c0-0.652,0.135-1.202,0.404-1.649s0.642-0.786,1.116-1.017s1.015-0.346,1.62-0.346c0.598,0,1.132,0.115,1.603,0.346
		s0.842,0.569,1.113,1.017s0.407,0.997,0.407,1.649c0,0.641-0.136,1.182-0.407,1.623s-0.643,0.774-1.113,0.999
		S31.094,9.736,30.496,9.736z M28.779,3.01V1.926h3.41V3.01H28.779z M30.496,8.096c0.25,0,0.442-0.063,0.577-0.19
		s0.229-0.291,0.281-0.492S31.434,7,31.434,6.777c0-0.23-0.026-0.45-0.079-0.659s-0.146-0.38-0.281-0.513s-0.327-0.199-0.577-0.199
		c-0.254,0-0.452,0.066-0.595,0.199s-0.241,0.304-0.296,0.513s-0.082,0.429-0.082,0.659c0,0.223,0.027,0.435,0.082,0.636
		s0.153,0.365,0.296,0.492S30.242,8.096,30.496,8.096z"/>
</g>
<g>
	<g>
		<path fill="#FFFFFF" d="M45.847,7.707c0,0.168,0.046,0.294,0.138,0.378s0.21,0.126,0.354,0.126c0.23,0,0.427-0.051,0.589-0.152
			s0.286-0.207,0.372-0.316V7.01c-0.578,0.012-0.965,0.073-1.16,0.185S45.847,7.477,45.847,7.707z M53.869,5.316
			c-0.25,0-0.461,0.083-0.633,0.249s-0.285,0.323-0.34,0.472v1.307c0.086,0.156,0.208,0.31,0.366,0.46s0.36,0.226,0.606,0.226
			c0.266,0,0.479-0.11,0.639-0.331s0.24-0.567,0.24-1.04c0-0.484-0.079-0.829-0.237-1.034S54.138,5.316,53.869,5.316z M37.133,0
			v11.292h22.373V0H37.133z M42.958,9.541h-0.48c-0.707,0-1.26-0.064-1.658-0.193s-0.678-0.35-0.838-0.662s-0.24-0.744-0.24-1.295
			V1.654h2.168V7.25c0,0.238,0.037,0.401,0.111,0.489s0.234,0.132,0.48,0.132h0.457V9.541z M49.451,9.541h-2.039L47.347,8.92
			c-0.223,0.23-0.472,0.407-0.747,0.53s-0.61,0.185-1.005,0.185c-0.309,0-0.61-0.063-0.905-0.188s-0.537-0.318-0.727-0.58
			s-0.284-0.594-0.284-0.996c0-0.543,0.154-0.949,0.463-1.219s0.737-0.453,1.286-0.551s1.185-0.158,1.907-0.182V5.727
			c0-0.234-0.055-0.396-0.164-0.483s-0.254-0.132-0.434-0.132c-0.215,0-0.381,0.044-0.498,0.132s-0.176,0.237-0.176,0.448h-2.016
			c0-0.492,0.111-0.881,0.334-1.166s0.536-0.488,0.94-0.609s0.876-0.182,1.415-0.182c0.445,0,0.837,0.034,1.175,0.103
			s0.621,0.18,0.85,0.334s0.4,0.354,0.516,0.601s0.173,0.549,0.173,0.908V9.541z M56.608,8.36c-0.213,0.436-0.503,0.759-0.87,0.97
			s-0.785,0.316-1.254,0.316c-0.344,0-0.646-0.069-0.908-0.208s-0.516-0.356-0.762-0.653l-0.059,0.756h-2.039V1.654h2.18v2.895
			c0.207-0.266,0.449-0.47,0.727-0.612s0.607-0.214,0.99-0.214c0.457,0,0.859,0.106,1.207,0.319s0.619,0.538,0.814,0.976
			s0.293,0.998,0.293,1.682C56.927,7.371,56.821,7.925,56.608,8.36z"/>
	</g>
</g>
</svg>
